<?xml version="1.0" encoding="UTF-8"?>
<svg width="256px" height="256px" viewBox="0 0 256 256" version="1.1" xmlns="http://www.w3.org/2000/svg">
    <g>
        <path d="M128,0 C198.692448,0 256,57.307552 256,128 C256,198.692448 198.692448,256 128,256 C57.307552,256 0,198.692448 0,128 C0,57.307552 57.307552,0 128,0" fill="#44B78B"/>
        <g transform="translate(50, 45)" fill="#FFFFFF">
            <path d="M116.73,102.24 L116.73,52.15 C116.73,25.88 115.47,16.21 112.16,9.36 C109.08,2.76 104.16,-0.84 96.73,-0.84 C89.53,-0.84 84.61,2.76 81.3,9.36 C78,16.21 76.73,25.88 76.73,52.15 L76.73,102.24 C76.73,128.51 78,138.18 81.3,145.03 C84.61,151.63 89.53,155.23 96.73,155.23 C104.16,155.23 109.08,151.63 112.16,145.03 C115.47,138.18 116.73,128.51 116.73,102.24 M156.73,100.97 C156.73,127.24 155.47,139.22 151.93,148.89 C146.54,163.13 135.16,171.78 96.73,171.78 C58.54,171.78 47.16,163.13 41.77,148.89 C38.23,139.22 36.73,127.24 36.73,100.97 L36.73,53.42 C36.73,27.15 38.23,15.17 41.77,5.5 C47.16,-8.74 58.54,-17.39 96.73,-17.39 C135.16,-17.39 146.54,-8.74 151.93,5.5 C155.47,15.17 156.73,27.15 156.73,53.42 L156.73,100.97"/>
            <path d="M20.73,153.63 L20.73,3.96 L0.73,3.96 L0.73,153.63 L20.73,153.63"/>
        </g>
    </g>
</svg>
