<?xml version="1.0" encoding="UTF-8"?>
<svg width="256px" height="256px" viewBox="0 0 256 256" version="1.1" xmlns="http://www.w3.org/2000/svg">
    <g>
        <path d="M255.855641,59.619717 C255.950565,59.9710596 256,60.3333149 256,60.6972354 L256,195.303181 C256,197.051931 255.049937,198.674735 253.477189,199.515429 L158.030566,253.976871 C157.269649,254.391977 156.392872,254.599745 155.515789,254.599745 C154.638705,254.599745 153.761928,254.391977 153.001011,253.976871 L57.5543872,199.515429 C55.981639,198.674735 55.0315765,197.051931 55.0315765,195.303181 L55.0315765,60.6972354 C55.0315765,60.3333149 55.0810117,59.9710596 55.175935,59.619717 L155.515789,115.616956 L255.855641,59.619717 Z M155.515789,91.1852335 L72.8580279,44.6012097 L153.001011,2.02291432 C154.542001,1.17239704 156.489576,1.17239704 158.030566,2.02291432 L238.173552,44.6012097 L155.515789,91.1852335 Z M91.3053426,75.8660377 L155.515789,112.478683 L219.726235,75.8660377 L155.515789,39.2533919 L91.3053426,75.8660377 Z M71.6580279,198.015653 L152.346899,240.145538 L152.346899,157.235333 L71.6580279,115.105449 L71.6580279,198.015653 Z M168.684679,240.145538 L239.37355,198.015653 L239.37355,115.105449 L168.684679,157.235333 L168.684679,240.145538 Z" fill="#FF2D20"/>
    </g>
</svg>
