<?xml version="1.0" encoding="UTF-8"?>
<svg width="256px" height="256px" viewBox="0 0 256 256" version="1.1" xmlns="http://www.w3.org/2000/svg">
    <g>
        <path d="M119.616813,0.0688905149 C122.899305,-0.0221638935 126.180799,0.444216462 129.303575,1.49410199 L222.920162,46.1233693 C228.863916,48.7737757 232.890582,54.1885117 233.84652,60.531773 L233.84652,194.674891 C233.84652,201.018155 229.819854,206.432891 223.8761,209.083297 L130.259513,253.712564 C124.474271,256.786201 117.190159,256.786201 111.404917,253.712564 L17.7883302,209.083297 C11.8445761,206.432891 7.81791032,201.018155 7.81791032,194.674891 L7.81791032,60.531773 C7.81791032,54.1885117 11.8445761,48.7737757 17.7883302,46.1233693 L111.404917,1.49410199 C114.061635,0.66741169 116.797904,0.161080273 119.616813,0.0688905149 L119.616813,0.0688905149 Z M119.616813,27.2597726 L31.5031736,68.5870633 L119.616813,109.914354 L207.730452,68.5870633 L119.616813,27.2597726 Z M111.404917,242.095626 L25.3801993,199.74867 L25.3801993,77.0453544 L111.404917,119.392311 L111.404917,242.095626 Z M216.284526,199.74867 L130.259513,242.095626 L130.259513,119.392311 L216.284526,77.0453544 L216.284526,199.74867 Z" fill="#539E43"/>
    </g>
</svg>
