<?xml version="1.0" encoding="UTF-8"?>
<svg width="256px" height="256px" viewBox="0 0 256 256" version="1.1" xmlns="http://www.w3.org/2000/svg">
    <g>
        <path d="M128,0 L0,51.2 L0,119.466667 C0,184.903111 54.613333,246.442667 128,256 C201.386667,246.442667 256,184.903111 256,119.466667 L256,51.2 L128,0 Z M128,234.666667 C67.925333,226.304 21.333333,176.014222 21.333333,119.466667 L21.333333,62.293333 L128,19.626667 L234.666667,62.293333 L234.666667,119.466667 C234.666667,176.014222 188.074667,226.304 128,234.666667 Z" fill="#FFD700"/>
        <path d="M170.666667,85.333333 L85.333333,85.333333 L85.333333,128 C85.333333,151.786667 104.213333,170.666667 128,170.666667 C151.786667,170.666667 170.666667,151.786667 170.666667,128 L170.666667,85.333333 Z M128,149.333333 C115.84,149.333333 106.666667,140.16 106.666667,128 L106.666667,106.666667 L149.333333,106.666667 L149.333333,128 C149.333333,140.16 140.16,149.333333 128,149.333333 Z" fill="#FFD700"/>
    </g>
</svg>
