<?xml version="1.0" encoding="UTF-8"?>
<svg width="256px" height="256px" viewBox="0 0 256 256" version="1.1" xmlns="http://www.w3.org/2000/svg">
    <g>
        <rect fill="#3178C6" width="256" height="256" rx="28"/>
        <path d="M56.611,128.849 L56.611,143.785 L82.907,143.785 L109.203,143.785 L109.203,199.163 L109.203,254.541 L128.006,254.541 L146.809,254.541 L146.809,199.163 L146.809,143.785 L173.105,143.785 L199.401,143.785 L199.401,129.087 L199.401,114.389 L128.006,114.389 L56.611,114.389 L56.611,128.849 Z M206.425,114.389 C216.472,116.575 224.051,121.282 230.37,128.849 C233.578,132.772 237.498,138.89 238.141,141.599 C238.141,142.074 227.805,148.73 221.486,152.415 C221.248,152.653 219.775,151.228 218.064,148.73 C213.906,142.074 209.633,139.365 202.744,138.652 C192.935,137.464 185.808,142.311 185.808,151.228 C185.808,154.438 186.451,156.149 187.974,158.334 C190.706,162.257 195.455,164.68 207.544,169.387 C229.516,177.904 240.328,183.547 247.455,191.827 C255.51,201.241 257.935,216.415 253.424,229.687 C248.436,244.148 235.051,254.064 214.787,257.513 C208.468,258.463 191.412,258.225 184.523,257.038 C170.661,254.779 157.513,248.599 148.895,239.66 C145.687,236.213 139.368,228.262 139.844,227.549 C140.082,227.312 141.555,226.362 143.027,225.412 L147.899,223.464 L151.582,228.262 C157.037,235.263 166.846,241.133 176.655,243.318 C198.152,247.717 220.843,240.134 220.843,225.174 C220.843,220.705 220.129,218.282 217.873,215.097 C214.787,211.174 208.944,208.465 192.935,202.428 C175.183,195.751 167.489,191.827 159.91,185.553 C155.399,181.63 151.344,175.831 149.395,170.337 C147.661,165.63 147.185,153.602 148.68,148.254 C152.701,133.246 166.132,122.945 184.285,119.496 C190.944,118.309 199.995,118.547 206.425,114.389 L206.425,114.389 Z" fill="#FFFFFF" fill-rule="nonzero"/>
    </g>
</svg>
